/* XPM */
static char *b43cd94b26324e62d77f68ee6d2202b3lNmDP9BnLJrJLV6o[] = {
/* columns rows colors chars-per-pixel */
"96 96 3 1 ",
"  c #7E7C7C",
". c #C3C3C3",
"X c white",
/* pixels */
"                                                                                                ",
"XXX     XXXXXXXXXXXXXXXXXXXXXXXXXXXXXXXXXXXXXXXXXXXXXXXXXXXXXXX     XXXXXXXXXXXXXXXXXXXXXXXXXXXX",
"XXX     XXXXXXXXXXXXXXXXXXXXXXXXXXXXXXXXXXXXXXXXXXXXXXXXXXXXXXX     XXXXXXXXXXXXXXXXXXXXXXXXXXXX",
"XXX     XXXXXXXXXXXXXXXXXXXXXXXXXXXXXXXXXXXXXXXXXXXXXXXXXXXXXXX     XXXXXXXXXXXXXXXXXXXXXXXXXXXX",
"XXX     XXXXXXXXXXXXXXXXXXXXXXXXXXXXXXXXXXXXXXXXXXXXXXXXXXXXXXX     XXXXXXXXXXXXXXXXXXXXXXXXXXXX",
"XXX     XXXXXXXXXXXXXXXXXXXXXXXXXXXXXXXXXXXXXXXXXXXXXXXXXXXXXXX     XXXXXXXXXXXXXXXXXXXXXXXXXXXX",
"...     .......................................................     ............................",
"...     .......................................................     ............................",
"...     .......................................................     ............................",
"...     .......................................................     ............................",
"...     .......................................................     ............................",
"...     .......................................................     ............................",
"...     .......................................................     ............................",
"...     .......................................................     ............................",
"...     .......................................................     ............................",
"...     .......................................................     ............................",
"...     .......................................................     ............................",
"...     .......................................................     ............................",
"...     .......................................................     ............................",
"...     .......................................................     ............................",
"...     .......................................................     ............................",
"                                                                                                ",
"                                                                                                ",
"                                                                                                ",
"                                                                                                ",
"                                                                                                ",
"XXXXXXXXXXXXXXXXXXXXXXXXXXXXXXXXX     XXXXXXXXXXXXXXXXXXXXXXXXXXXXXXXXXXXXXXXXXXXXXXXXXXXXXXX   ",
"XXXXXXXXXXXXXXXXXXXXXXXXXXXXXXXXX     XXXXXXXXXXXXXXXXXXXXXXXXXXXXXXXXXXXXXXXXXXXXXXXXXXXXXXX   ",
"XXXXXXXXXXXXXXXXXXXXXXXXXXXXXXXXX     XXXXXXXXXXXXXXXXXXXXXXXXXXXXXXXXXXXXXXXXXXXXXXXXXXXXXXX   ",
"XXXXXXXXXXXXXXXXXXXXXXXXXXXXXXXXX     XXXXXXXXXXXXXXXXXXXXXXXXXXXXXXXXXXXXXXXXXXXXXXXXXXXXXXX   ",
"XXXXXXXXXXXXXXXXXXXXXXXXXXXXXXXXX     XXXXXXXXXXXXXXXXXXXXXXXXXXXXXXXXXXXXXXXXXXXXXXXXXXXXXXX   ",
".................................     .......................................................   ",
".................................     .......................................................   ",
".................................     .......................................................   ",
".................................     .......................................................   ",
".................................     .......................................................   ",
".................................     .......................................................   ",
".................................     .......................................................   ",
".................................     .......................................................   ",
".................................     .......................................................   ",
".................................     .......................................................   ",
".................................     .......................................................   ",
".................................     .......................................................   ",
".................................     .......................................................   ",
".................................     .......................................................   ",
".................................     .......................................................   ",
"                                                                                                ",
"                                                                                                ",
"                                                                                                ",
"                                                                                                ",
"                                                                                                ",
"XXXXXXXXXXXXX     XXXXXXXXXXXXXXXXXXXXXXXXXXXXXXXXXXXXXXXXXXXXX     XXXXXXXXXXXXXXXXXXXXXXXXXXXX",
"XXXXXXXXXXXXX     XXXXXXXXXXXXXXXXXXXXXXXXXXXXXXXXXXXXXXXXXXXXX     XXXXXXXXXXXXXXXXXXXXXXXXXXXX",
"XXXXXXXXXXXXX     XXXXXXXXXXXXXXXXXXXXXXXXXXXXXXXXXXXXXXXXXXXXX     XXXXXXXXXXXXXXXXXXXXXXXXXXXX",
"XXXXXXXXXXXXX     XXXXXXXXXXXXXXXXXXXXXXXXXXXXXXXXXXXXXXXXXXXXX     XXXXXXXXXXXXXXXXXXXXXXXXXXXX",
"XXXXXXXXXXXXX     XXXXXXXXXXXXXXXXXXXXXXXXXXXXXXXXXXXXXXXXXXXXX     XXXXXXXXXXXXXXXXXXXXXXXXXXXX",
".............     .............................................     ............................",
".............     .............................................     ............................",
".............     .............................................     ............................",
".............     .............................................     ............................",
".............     .............................................     ............................",
".............     .............................................     ............................",
".............     .............................................     ............................",
".............     .............................................     ............................",
".............     .............................................     ............................",
".............     .............................................     ............................",
".............     .............................................     ............................",
".............     .............................................     ............................",
".............     .............................................     ............................",
".............     .............................................     ............................",
".............     .............................................     ............................",
"                                                                                                ",
"                                                                                                ",
"                                                                                                ",
"                                                                                                ",
"                                                                                                ",
"XXXXXXXXXXXXXXXXXXXXXXXXXXXXXXXXXXXXXX     XXXXXXXXXXXXXXXXXXXXXXXXXXXXXXXXXXXXXXXXXXXXXXXXXXXXX",
"XXXXXXXXXXXXXXXXXXXXXXXXXXXXXXXXXXXXXX     XXXXXXXXXXXXXXXXXXXXXXXXXXXXXXXXXXXXXXXXXXXXXXXXXXXXX",
"XXXXXXXXXXXXXXXXXXXXXXXXXXXXXXXXXXXXXX     XXXXXXXXXXXXXXXXXXXXXXXXXXXXXXXXXXXXXXXXXXXXXXXXXXXXX",
"XXXXXXXXXXXXXXXXXXXXXXXXXXXXXXXXXXXXXX     XXXXXXXXXXXXXXXXXXXXXXXXXXXXXXXXXXXXXXXXXXXXXXXXXXXXX",
"XXXXXXXXXXXXXXXXXXXXXXXXXXXXXXXXXXXXXX     XXXXXXXXXXXXXXXXXXXXXXXXXXXXXXXXXXXXXXXXXXXXXXXXXXXXX",
"......................................     .....................................................",
"......................................     .....................................................",
"......................................     .....................................................",
"......................................     .....................................................",
"......................................     .....................................................",
"......................................     .....................................................",
"......................................     .....................................................",
"......................................     .....................................................",
"......................................     .....................................................",
"......................................     .....................................................",
"......................................     .....................................................",
"......................................     .....................................................",
"......................................     .....................................................",
"......................................     .....................................................",
"......................................     ....................................................."
};
