/* XPM */
static char *_3232e604c4c419c955667407494e63c6cHNe21Vop6S333B[] = {
/* columns rows colors chars-per-pixel */
"96 96 3 1 ",
"  c #3E3C3C",
". c gray37",
"X c #8D8D8D",
/* pixels */
"                                                                                                ",
"                                                                                                ",
"                                                                                                ",
"                                                                                                ",
"                                                                                                ",
"XXXXXXXXXXXXXXXXXXXXXXXXXXXXXXXXXXXXXXXXXXXXXXXXXXX     XXXXXXXXXXXXXXXXXXXXXXXXXXXXXXXXXXXXXXXX",
"XXXXXXXXXXXXXXXXXXXXXXXXXXXXXXXXXXXXXXXXXXXXXXXXXXX     XXXXXXXXXXXXXXXXXXXXXXXXXXXXXXXXXXXXXXXX",
"XXXXXXXXXXXXXXXXXXXXXXXXXXXXXXXXXXXXXXXXXXXXXXXXXXX     XXXXXXXXXXXXXXXXXXXXXXXXXXXXXXXXXXXXXXXX",
"XXXXXXXXXXXXXXXXXXXXXXXXXXXXXXXXXXXXXXXXXXXXXXXXXXX     XXXXXXXXXXXXXXXXXXXXXXXXXXXXXXXXXXXXXXXX",
"XXXXXXXXXXXXXXXXXXXXXXXXXXXXXXXXXXXXXXXXXXXXXXXXXXX     XXXXXXXXXXXXXXXXXXXXXXXXXXXXXXXXXXXXXXXX",
"...................................................     ........................................",
"...................................................     ........................................",
"...................................................     ........................................",
"...................................................     ........................................",
"...................................................     ........................................",
"...................................................     ........................................",
"...................................................     ........................................",
"...................................................     ........................................",
"...................................................     ........................................",
"...................................................     ........................................",
"...................................................     ........................................",
"...................................................     ........................................",
"...................................................     ........................................",
"...................................................     ........................................",
"...................................................     ........................................",
"                                                                                                ",
"                                                                                                ",
"                                                                                                ",
"                                                                                                ",
"                                                                                                ",
"XXXXXXXXXXXXXXXXXXXXX     XXXXXXXXXXXXXXXXXXXXXXXXXXXXXXXXXXXXXXXXXXXXXXXXXXXXXXX     XXXXXXXXXX",
"XXXXXXXXXXXXXXXXXXXXX     XXXXXXXXXXXXXXXXXXXXXXXXXXXXXXXXXXXXXXXXXXXXXXXXXXXXXXX     XXXXXXXXXX",
"XXXXXXXXXXXXXXXXXXXXX     XXXXXXXXXXXXXXXXXXXXXXXXXXXXXXXXXXXXXXXXXXXXXXXXXXXXXXX     XXXXXXXXXX",
"XXXXXXXXXXXXXXXXXXXXX     XXXXXXXXXXXXXXXXXXXXXXXXXXXXXXXXXXXXXXXXXXXXXXXXXXXXXXX     XXXXXXXXXX",
"XXXXXXXXXXXXXXXXXXXXX     XXXXXXXXXXXXXXXXXXXXXXXXXXXXXXXXXXXXXXXXXXXXXXXXXXXXXXX     XXXXXXXXXX",
".....................     .......................................................     ..........",
".....................     .......................................................     ..........",
".....................     .......................................................     ..........",
".....................     .......................................................     ..........",
".....................     .......................................................     ..........",
".....................     .......................................................     ..........",
".....................     .......................................................     ..........",
".....................     .......................................................     ..........",
".....................     .......................................................     ..........",
".....................     .......................................................     ..........",
".....................     .......................................................     ..........",
".....................     .......................................................     ..........",
".....................     .......................................................     ..........",
".....................     .......................................................     ..........",
".....................     .......................................................     ..........",
"                                                                                                ",
"                                                                                                ",
"                                                                                                ",
"                                                                                                ",
"                                                                                                ",
"X     XXXXXXXXXXXXXXXXXXXXXXXXXXXXXXXXXXXXXXXXXXXXX     XXXXXXXXXXXXXXXXXXXXXXXXXXXXXXXXXXXXXXXX",
"X     XXXXXXXXXXXXXXXXXXXXXXXXXXXXXXXXXXXXXXXXXXXXX     XXXXXXXXXXXXXXXXXXXXXXXXXXXXXXXXXXXXXXXX",
"X     XXXXXXXXXXXXXXXXXXXXXXXXXXXXXXXXXXXXXXXXXXXXX     XXXXXXXXXXXXXXXXXXXXXXXXXXXXXXXXXXXXXXXX",
"X     XXXXXXXXXXXXXXXXXXXXXXXXXXXXXXXXXXXXXXXXXXXXX     XXXXXXXXXXXXXXXXXXXXXXXXXXXXXXXXXXXXXXXX",
"X     XXXXXXXXXXXXXXXXXXXXXXXXXXXXXXXXXXXXXXXXXXXXX     XXXXXXXXXXXXXXXXXXXXXXXXXXXXXXXXXXXXXXXX",
".     .............................................     ........................................",
".     .............................................     ........................................",
".     .............................................     ........................................",
".     .............................................     ........................................",
".     .............................................     ........................................",
".     .............................................     ........................................",
".     .............................................     ........................................",
".     .............................................     ........................................",
".     .............................................     ........................................",
".     .............................................     ........................................",
".     .............................................     ........................................",
".     .............................................     ........................................",
".     .............................................     ........................................",
".     .............................................     ........................................",
".     .............................................     ........................................",
"                                                                                                ",
"                                                                                                ",
"                                                                                                ",
"                                                                                                ",
"                                                                                                ",
"XXXXXXXXXXXXXXXXXXXXXXXXXX     XXXXXXXXXXXXXXXXXXXXXXXXXXXXXXXXXXXXXXXXXXXXXXXXXXXXXXXXXXXX     ",
"XXXXXXXXXXXXXXXXXXXXXXXXXX     XXXXXXXXXXXXXXXXXXXXXXXXXXXXXXXXXXXXXXXXXXXXXXXXXXXXXXXXXXXX     ",
"XXXXXXXXXXXXXXXXXXXXXXXXXX     XXXXXXXXXXXXXXXXXXXXXXXXXXXXXXXXXXXXXXXXXXXXXXXXXXXXXXXXXXXX     ",
"XXXXXXXXXXXXXXXXXXXXXXXXXX     XXXXXXXXXXXXXXXXXXXXXXXXXXXXXXXXXXXXXXXXXXXXXXXXXXXXXXXXXXXX     ",
"XXXXXXXXXXXXXXXXXXXXXXXXXX     XXXXXXXXXXXXXXXXXXXXXXXXXXXXXXXXXXXXXXXXXXXXXXXXXXXXXXXXXXXX     ",
"..........................     ............................................................     ",
"..........................     ............................................................     ",
"..........................     ............................................................     ",
"..........................     ............................................................     ",
"..........................     ............................................................     ",
"..........................     ............................................................     ",
"..........................     ............................................................     ",
"..........................     ............................................................     ",
"..........................     ............................................................     ",
"..........................     ............................................................     ",
"..........................     ............................................................     "
};
