/* XPM */
static char *a4ea593ca89e4fe9bf9d86ea3864f1bc28T682pb0dOqYkzb[] = {
/* columns rows colors chars-per-pixel */
"96 96 3 1 ",
"  c black",
". c gray18",
"X c gray30",
/* pixels */
"                                                                                                ",
"XXXXXXXXXXXXXXXXXXXXXXXXXXXXXXXXXXXXXXXXXXXXXXXXXXX     XXXXXXXXXXXXXXXXXXXXXXXXXXXXXXXXXXXXXXXX",
"XXXXXXXXXXXXXXXXXXXXXXXXXXXXXXXXXXXXXXXXXXXXXXXXXXX     XXXXXXXXXXXXXXXXXXXXXXXXXXXXXXXXXXXXXXXX",
"XXXXXXXXXXXXXXXXXXXXXXXXXXXXXXXXXXXXXXXXXXXXXXXXXXX     XXXXXXXXXXXXXXXXXXXXXXXXXXXXXXXXXXXXXXXX",
"XXXXXXXXXXXXXXXXXXXXXXXXXXXXXXXXXXXXXXXXXXXXXXXXXXX     XXXXXXXXXXXXXXXXXXXXXXXXXXXXXXXXXXXXXXXX",
"XXXXXXXXXXXXXXXXXXXXXXXXXXXXXXXXXXXXXXXXXXXXXXXXXXX     XXXXXXXXXXXXXXXXXXXXXXXXXXXXXXXXXXXXXXXX",
"...................................................     ........................................",
"...................................................     ........................................",
"...................................................     ........................................",
"...................................................     ........................................",
"...................................................     ........................................",
"...................................................     ........................................",
"...................................................     ........................................",
"...................................................     ........................................",
"...................................................     ........................................",
"...................................................     ........................................",
"...................................................     ........................................",
"...................................................     ........................................",
"...................................................     ........................................",
"...................................................     ........................................",
"...................................................     ........................................",
"                                                                                                ",
"                                                                                                ",
"                                                                                                ",
"                                                                                                ",
"                                                                                                ",
"XXXXXXXXXXXXXXXXXXXXX     XXXXXXXXXXXXXXXXXXXXXXXXXXXXXXXXXXXXXXXXXXXXXXXXXXXXXXX     XXXXXXXXXX",
"XXXXXXXXXXXXXXXXXXXXX     XXXXXXXXXXXXXXXXXXXXXXXXXXXXXXXXXXXXXXXXXXXXXXXXXXXXXXX     XXXXXXXXXX",
"XXXXXXXXXXXXXXXXXXXXX     XXXXXXXXXXXXXXXXXXXXXXXXXXXXXXXXXXXXXXXXXXXXXXXXXXXXXXX     XXXXXXXXXX",
"XXXXXXXXXXXXXXXXXXXXX     XXXXXXXXXXXXXXXXXXXXXXXXXXXXXXXXXXXXXXXXXXXXXXXXXXXXXXX     XXXXXXXXXX",
"XXXXXXXXXXXXXXXXXXXXX     XXXXXXXXXXXXXXXXXXXXXXXXXXXXXXXXXXXXXXXXXXXXXXXXXXXXXXX     XXXXXXXXXX",
".....................     .......................................................     ..........",
".....................     .......................................................     ..........",
".....................     .......................................................     ..........",
".....................     .......................................................     ..........",
".....................     .......................................................     ..........",
".....................     .......................................................     ..........",
".....................     .......................................................     ..........",
".....................     .......................................................     ..........",
".....................     .......................................................     ..........",
".....................     .......................................................     ..........",
".....................     .......................................................     ..........",
".....................     .......................................................     ..........",
".....................     .......................................................     ..........",
".....................     .......................................................     ..........",
".....................     .......................................................     ..........",
"                                                                                                ",
"                                                                                                ",
"                                                                                                ",
"                                                                                                ",
"                                                                                                ",
"X     XXXXXXXXXXXXXXXXXXXXXXXXXXXXXXXXXXXXXXXXXXXXX     XXXXXXXXXXXXXXXXXXXXXXXXXXXXXXXXXXXXXXXX",
"X     XXXXXXXXXXXXXXXXXXXXXXXXXXXXXXXXXXXXXXXXXXXXX     XXXXXXXXXXXXXXXXXXXXXXXXXXXXXXXXXXXXXXXX",
"X     XXXXXXXXXXXXXXXXXXXXXXXXXXXXXXXXXXXXXXXXXXXXX     XXXXXXXXXXXXXXXXXXXXXXXXXXXXXXXXXXXXXXXX",
"X     XXXXXXXXXXXXXXXXXXXXXXXXXXXXXXXXXXXXXXXXXXXXX     XXXXXXXXXXXXXXXXXXXXXXXXXXXXXXXXXXXXXXXX",
"X     XXXXXXXXXXXXXXXXXXXXXXXXXXXXXXXXXXXXXXXXXXXXX     XXXXXXXXXXXXXXXXXXXXXXXXXXXXXXXXXXXXXXXX",
".     .............................................     ........................................",
".     .............................................     ........................................",
".     .............................................     ........................................",
".     .............................................     ........................................",
".     .............................................     ........................................",
".     .............................................     ........................................",
".     .............................................     ........................................",
".     .............................................     ........................................",
".     .............................................     ........................................",
".     .............................................     ........................................",
".     .............................................     ........................................",
".     .............................................     ........................................",
".     .............................................     ........................................",
".     .............................................     ........................................",
".     .............................................     ........................................",
"                                                                                                ",
"                                                                                                ",
"                                                                                                ",
"                                                                                                ",
"                                                                                                ",
"XXXXXXXXXXXXXXXXXXXXXXXXXX     XXXXXXXXXXXXXXXXXXXXXXXXXXXXXXXXXXXXXXXXXXXXXXXXXXXXXXXXXXXX     ",
"XXXXXXXXXXXXXXXXXXXXXXXXXX     XXXXXXXXXXXXXXXXXXXXXXXXXXXXXXXXXXXXXXXXXXXXXXXXXXXXXXXXXXXX     ",
"XXXXXXXXXXXXXXXXXXXXXXXXXX     XXXXXXXXXXXXXXXXXXXXXXXXXXXXXXXXXXXXXXXXXXXXXXXXXXXXXXXXXXXX     ",
"XXXXXXXXXXXXXXXXXXXXXXXXXX     XXXXXXXXXXXXXXXXXXXXXXXXXXXXXXXXXXXXXXXXXXXXXXXXXXXXXXXXXXXX     ",
"XXXXXXXXXXXXXXXXXXXXXXXXXX     XXXXXXXXXXXXXXXXXXXXXXXXXXXXXXXXXXXXXXXXXXXXXXXXXXXXXXXXXXXX     ",
"..........................     ............................................................     ",
"..........................     ............................................................     ",
"..........................     ............................................................     ",
"..........................     ............................................................     ",
"..........................     ............................................................     ",
"..........................     ............................................................     ",
"..........................     ............................................................     ",
"..........................     ............................................................     ",
"..........................     ............................................................     ",
"..........................     ............................................................     ",
"..........................     ............................................................     ",
"..........................     ............................................................     ",
"..........................     ............................................................     ",
"..........................     ............................................................     ",
"..........................     ............................................................     "
};
